# xmcd
#
# Track frame offsets:
#	150
#	15660
#	29894
#	45025
#	60555
#	77844
#	90706
#	109794
#	145246
#	158800
#	170874
#
# Disc length: 2474 seconds
#
# Revision: 0
# Processed by: cddbd v1.5.1PL0 Copyright (c) Steve Scherf et al.
# Submitted via: audiograbber 1.83.01
#
DISCID=8b09a80b
DTITLE=The Blues Brothers - Original Soundtrack Recording
DYEAR=1980
DGENRE=Blues
TTITLE0=She Caught The Katy
TTITLE1=Peter Gunn Theme
TTITLE2=Gimme Some Lovin'
TTITLE3=Shake Your Tailfeather
TTITLE4=Everybody Needs Somebody To Love
TTITLE5=The Old Landmark
TTITLE6=Think
TTITLE7=Theme From Rawhide
TTITLE8=Minnie The Moocher
TTITLE9=Sweet Home Chicago
TTITLE10=Jailhouse Rock
EXTD=
EXTT0=
EXTT1=
EXTT2=
EXTT3=
EXTT4=
EXTT5=
EXTT6=
EXTT7=
EXTT8=
EXTT9=
EXTT10=
PLAYORDER=
